<svg xmlns="http://www.w3.org/2000/svg"  viewBox="0 0 256 256" width="128px" height="128px"><path fill="#478cf7" d="M84.557,66.815V49.443c0-9.374,7.626-17,17-17h52.887c9.374,0,17,7.626,17,17v17.372h-14V49.443 c0-1.654-1.346-3-3-3h-52.887c-1.654,0-3,1.346-3,3v17.372H84.557z"/><path fill="#478cf7" d="M209.99,221.675H46.01c-4.152,0-7.518-3.366-7.518-7.518V74.3c0-4.152,3.366-7.518,7.518-7.518H209.99 c4.152,0,7.518,3.366,7.518,7.518v139.857C217.507,218.309,214.141,221.675,209.99,221.675z"/><path fill="#377de2" d="M209.99,66.782h-6.163v133.694c0,4.152-3.366,7.518-7.518,7.518H38.493v6.163 c0,4.152,3.366,7.518,7.518,7.518H209.99c4.152,0,7.518-3.366,7.518-7.518V74.3C217.507,70.148,214.141,66.782,209.99,66.782 z"/><path fill="#2266d3" d="M210.634,66.815c0.018,0.213,0.033,0.427,0.033,0.645v139.857c0,4.152-3.366,7.518-7.518,7.518H39.17 c-0.218,0-0.432-0.014-0.645-0.033c0.328,3.849,3.551,6.873,7.485,6.873H209.99c4.152,0,7.518-3.366,7.518-7.518V74.3 C217.507,70.365,214.484,67.142,210.634,66.815z"/><path fill="#377de2" d="M128,153.157c39.187,0,73.656-15.538,93.606-39.046c1.134-1.336,1.72-3.051,1.72-4.803V74.3 c0-4.152-3.366-7.518-7.518-7.518H40.192c-4.152,0-7.518,3.366-7.518,7.518v35.009c0,1.752,0.587,3.467,1.72,4.803 C54.344,137.619,88.813,153.157,128,153.157z"/><path fill="#2266d3" d="M216.453,66.815c0.018,0.213,0.033,0.427,0.033,0.645v35.009c0,1.752-0.587,3.467-1.72,4.802 c-19.95,23.508-54.419,39.046-93.606,39.046c-34.069,0-64.565-11.748-85.062-30.263 C56.271,138.47,89.904,153.157,128,153.157c39.187,0,73.656-15.538,93.606-39.046c1.133-1.336,1.72-3.051,1.72-4.802V74.3 C223.326,70.366,220.302,67.142,216.453,66.815z"/><g><path fill="#5e9cf7" d="M40.88,107.61c-1.1,0-2-0.9-2-2c0-1.11,0.9-2,2-2c1.11,0,2,0.89,2,2 C42.88,106.71,41.99,107.61,40.88,107.61z M40.88,99.61c-1.1,0-2-0.9-2-2V74.99c0-0.53,0.22-1.04,0.59-1.41 c0.37-0.37,0.89-0.59,1.41-0.59h15.39c1.101,0,2,0.9,2,2s-0.899,2-2,2H42.88v20.62C42.88,98.71,41.99,99.61,40.88,99.61z"/></g><g><path fill="#fff" d="M128,98.443c-23.612,0-42.754,19.142-42.754,42.754s19.142,42.754,42.754,42.754 s42.754-19.142,42.754-42.754S151.612,98.443,128,98.443z M128,159.924c-10.343,0-18.727-8.385-18.727-18.727 s8.385-18.727,18.727-18.727s18.727,8.385,18.727,18.727S138.343,159.924,128,159.924z"/><path fill="#e6e7e8" d="M128,98.443c4.358,0,8.559,0.661,12.521,1.873l-2.694-13.338c-0.413-2.046-2.211-3.517-4.298-3.517h-11.057 c-2.087,0-3.885,1.471-4.298,3.517l-2.694,13.338C119.441,99.104,123.642,98.443,128,98.443z"/><path fill="#e6e7e8" d="M169.609,131.505l10.429-9.2c1.565-1.381,1.94-3.673,0.897-5.481l-5.529-9.576 c-1.044-1.808-3.217-2.629-5.195-1.964l-13.308,4.474C163.121,115.477,167.633,122.993,169.609,131.505z"/><path fill="#e6e7e8" d="M86.391,131.505c1.976-8.512,6.489-16.028,12.706-21.747l-13.308-4.474 c-1.978-0.665-4.151,0.156-5.195,1.964l-5.529,9.576c-1.043,1.808-0.669,4.1,0.897,5.481L86.391,131.505z"/><path fill="#e6e7e8" d="M169.669,150.655c-1.908,8.436-6.306,15.909-12.387,21.637l12.591,4.233 c1.978,0.665,4.151-0.156,5.195-1.964l5.529-9.576c1.043-1.808,0.669-4.1-0.897-5.481L169.669,150.655z"/><path fill="#e6e7e8" d="M86.331,150.655L76.3,159.504c-1.565,1.381-1.94,3.673-0.897,5.481l5.529,9.576 c1.044,1.808,3.217,2.629,5.195,1.964l12.591-4.233C92.637,166.563,88.239,159.091,86.331,150.655z"/><path fill="#e6e7e8" d="M128,183.951c-4.358,0-8.56-0.661-12.521-1.873l2.694,13.338c0.413,2.046,2.211,3.517,4.298,3.517h11.057 c2.087,0,3.885-1.471,4.298-3.517l2.694-13.338C136.56,183.29,132.358,183.951,128,183.951z"/><g><path fill="#e6e7e8" d="M128,113.724c-15.173,0-27.473,12.3-27.473,27.473s12.3,27.473,27.473,27.473s27.473-12.3,27.473-27.473 S143.173,113.724,128,113.724z M128,159.924c-10.343,0-18.727-8.385-18.727-18.727s8.385-18.727,18.727-18.727 s18.727,8.385,18.727,18.727S138.343,159.924,128,159.924z"/></g></g></svg>