<svg xmlns="http://www.w3.org/2000/svg"  viewBox="0 0 128 128" width="128px" height="128px"><path fill="#fff" d="M89 115c0-13.8-11.2-25-25-25h0c-13.8 0-25 11.2-25 25v3h50V115zM64 49A15 15 0 1 0 64 79 15 15 0 1 0 64 49zM64 3A10 10 0 1 0 64 23 10 10 0 1 0 64 3zM109 80A10 10 0 1 0 109 100 10 10 0 1 0 109 80zM109 28A10 10 0 1 0 109 48 10 10 0 1 0 109 28zM19 28A10 10 0 1 0 19 48 10 10 0 1 0 19 28zM19 80A10 10 0 1 0 19 100 10 10 0 1 0 19 80z"/><path fill="#71c2ff" d="M64 37c-1.7 0-3-1.3-3-3V23c0-1.7 1.3-3 3-3s3 1.3 3 3v11C67 35.7 65.7 37 64 37zM40.6 50.5c-.8 1.4-2.7 1.9-4.1 1.1L27 46.1c-1.4-.8-1.9-2.7-1.1-4.1.8-1.4 2.7-1.9 4.1-1.1l9.5 5.5C40.9 47.3 41.4 49.1 40.6 50.5zM40.9 77.9c.9 1.4.4 3.3-1 4.1l-9.4 5.7c-1.4.9-3.3.4-4.1-1-.9-1.4-.4-3.3 1-4.1l9.4-5.7C38.2 76.1 40 76.5 40.9 77.9zM87.5 50.7c-.8-1.4-.3-3.3 1.1-4.1l9.6-5.4c1.4-.8 3.3-.3 4.1 1.1.8 1.4.3 3.3-1.1 4.1l-9.6 5.4C90.1 52.7 88.3 52.1 87.5 50.7zM87.1 77.9c.9-1.4 2.7-1.9 4.1-1l9.4 5.7c1.4.9 1.9 2.7 1 4.1s-2.7 1.9-4.1 1l-9.4-5.7C86.7 81.2 86.3 79.4 87.1 77.9z"/><path fill="#71c2ff" d="M64 26c-7.2 0-13-5.8-13-13S56.8 0 64 0c7.2 0 13 5.8 13 13S71.2 26 64 26zM64 6c-3.9 0-7 3.1-7 7s3.1 7 7 7c3.9 0 7-3.1 7-7S67.9 6 64 6zM109 103c-7.2 0-13-5.8-13-13s5.8-13 13-13 13 5.8 13 13S116.2 103 109 103zM109 83c-3.9 0-7 3.1-7 7s3.1 7 7 7 7-3.1 7-7S112.9 83 109 83zM109 51c-7.2 0-13-5.8-13-13s5.8-13 13-13 13 5.8 13 13S116.2 51 109 51zM109 31c-3.9 0-7 3.1-7 7s3.1 7 7 7 7-3.1 7-7S112.9 31 109 31zM19 51c-7.2 0-13-5.8-13-13s5.8-13 13-13 13 5.8 13 13S26.2 51 19 51zM19 31c-3.9 0-7 3.1-7 7s3.1 7 7 7 7-3.1 7-7S22.9 31 19 31zM19 103c-7.2 0-13-5.8-13-13s5.8-13 13-13 13 5.8 13 13S26.2 103 19 103zM19 83c-3.9 0-7 3.1-7 7s3.1 7 7 7 7-3.1 7-7S22.9 83 19 83z"/><path fill="#444b54" d="M89 118c-1.7 0-3-1.3-3-3 0-12.1-9.9-22-22-22s-22 9.9-22 22c0 1.7-1.3 3-3 3s-3-1.3-3-3c0-15.4 12.6-28 28-28s28 12.6 28 28C92 116.6 90.7 118 89 118zM64 82c-9.9 0-18-8.1-18-18s8.1-18 18-18c9.9 0 18 8.1 18 18S73.9 82 64 82zM64 52c-6.6 0-12 5.4-12 12s5.4 12 12 12c6.6 0 12-5.4 12-12S70.6 52 64 52z"/></svg>