<svg xmlns="http://www.w3.org/2000/svg"  viewBox="0 0 468 468" width="117px" height="117px"><path fill="#fff" d="M94.601,452H422V46c0-25.405-20.595-46-46-46H94.601V452z"/><path fill="#e6e7e8" d="M134.601,108.601V0h-40v452H422v-40h0C263.274,412,134.601,267.327,134.601,108.601z"/><path fill="#3e4d6c" d="M422,468H94.601c-8.836,0-16-7.163-16-16V120.465h32V436H406V46c0-4.048-0.788-7.968-2.342-11.65 l29.482-12.441C436.365,29.55,438,37.655,438,46v406C438,460.837,430.837,468,422,468z"/><path fill="#0795fe" d="M382.496,0c-24.93,0-45.139,20.21-45.139,45.14s20.209,45.14,45.139,45.14H75.14 c-24.93,0-45.14-20.21-45.14-45.14v0C30,20.21,50.21,0,75.14,0L382.496,0z"/><path fill="#3e4d6c" d="M335.233,265H274v-33h-32v33h-61.233C171.93,265,165,271.943,165,280.78V326h32v-29h122v29h32 v-45.22C351,271.943,344.07,265,335.233,265z"/><rect width="70" height="70" x="223" y="163.686" fill="#0795fe"/><rect width="70" height="70" x="145.767" y="324.314" fill="#0795fe"/><rect width="70" height="70" x="300.233" y="324.314" fill="#0795fe"/></svg>